<svg width="146" height="123" viewBox="0 0 146 123" fill="none" xmlns="http://www.w3.org/2000/svg">
<path d="M19.4252 16.0848C23.5695 13.4131 28.5398 12.005 33.0602 10.1279C35.5654 10.1512 38.268 8.71768 40.6026 8.12623C45.763 6.8189 50.972 5.81242 56.0121 4.13551C61.4979 2.31031 66.808 0.732286 72.7638 0.472023C78.0036 0.243053 83.3578 0.754422 88.6375 0.760714C92.9039 0.765799 97.1315 0.490085 101.442 0.751114C113.18 1.46182 123.009 9.30831 131.27 21.7836C136.323 29.4143 140.324 39.4291 142.781 48.3087C145.142 56.8369 146.207 65.845 145.088 73.8153C142.071 95.3103 130.453 112.585 113.772 117.854C105.146 120.579 96.1863 121.29 86.951 121.792C78.9495 122.227 71.0469 123.251 62.8251 122.522C54.7571 121.806 46.7784 119.63 38.6471 116.59C33.4258 114.638 27.7918 112.587 22.9395 108.541C19.0095 105.264 15.6501 99.7416 12.6529 95.2188C8.94316 89.621 5.70874 82.7986 3.59972 76.3224C-0.498804 63.7371 -0.716499 50.5729 2.0958 39.5477C4.83295 28.8173 11.7245 21.0491 19.4252 16.0848Z" fill="#FFD600"/>
</svg>
