<svg width="238" height="232" viewBox="0 0 238 232" fill="none" xmlns="http://www.w3.org/2000/svg">
<path d="M46.6088 52.9693C52.0909 49.4352 58.6657 47.5726 64.6453 45.0895C67.9592 45.1203 71.5343 43.2241 74.6225 42.4417C81.4486 40.7124 88.3392 39.381 95.0063 37.1627C102.263 34.7483 109.287 32.6609 117.166 32.3167C124.097 32.0138 131.179 32.6902 138.163 32.6985C143.807 32.7053 149.399 32.3405 155.102 32.6858C170.628 33.626 183.63 44.0054 194.558 60.5078C201.242 70.6017 206.534 83.8494 209.785 95.5954C212.907 106.877 214.316 118.793 212.837 129.336C208.846 157.769 193.477 180.62 171.412 187.591C160.001 191.195 148.149 192.136 135.933 192.8C125.348 193.375 114.894 194.73 104.019 193.765C93.3462 192.818 82.7918 189.94 72.0357 185.918C65.129 183.336 57.6763 180.623 51.2576 175.271C46.059 170.937 41.6151 163.631 37.6503 157.648C32.7431 150.244 28.4646 141.219 25.6748 132.652C20.2532 116.004 19.9652 98.5905 23.6854 84.0063C27.3061 69.8119 36.4222 59.5362 46.6088 52.9693Z" fill="#FFD600" fill-opacity="0.5"/>
</svg>
