<svg width="212" height="154" viewBox="0 0 212 154" fill="none" xmlns="http://www.w3.org/2000/svg">
<path d="M56.2312 49.2227C63.2269 47.0566 66.0576 44.8979 72.8626 42.2532C79.6675 39.6084 80.7902 38.9046 84.2899 37.1097C88.0255 35.1938 92.4803 33.9184 96.6007 33.117C103.802 31.7163 111.58 31.3897 118.198 31.8587C133.866 32.9689 146.25 36.5736 158.093 42.0613C168.98 47.1062 180.421 51.8891 189.458 58.3431C195.51 62.6655 200.576 68.0399 199.329 75.2731C198.453 80.358 195.106 85.4145 191.208 90.3717C188.89 93.3202 185.937 96.9091 181.984 99.1903C175.953 102.671 168.131 104.286 161.368 106.007C143.886 110.457 126.835 113.369 109.912 113.57C90.8413 113.797 72.7027 111.921 55.1136 109.497C42.7759 107.798 27.6634 105.648 20.4117 98.9841C15.2851 94.2728 13.5722 86.8786 14.5335 80.1523C15.4205 73.946 18.7598 69.878 26.9991 65.2733C36.2222 60.1188 45.9414 52.4086 56.2312 49.2227Z" stroke="#FFD600" stroke-opacity="0.5" stroke-width="8" stroke-linecap="round"/>
</svg>
