<svg width="104" height="52" viewBox="0 0 104 52" fill="none" xmlns="http://www.w3.org/2000/svg">
<path d="M7.20648 19.7496C11.1756 15.9602 14.6673 11.7933 18.1654 9.31948C21.6635 6.84571 36.4442 5.20103 50.1036 4.92566C65.1278 4.62279 86.4206 8.63711 91.2129 11.2461C96.0051 13.8552 98.8389 17.1391 99.47 21.9488C99.9137 25.3301 99.0422 28.8 97.8615 32.2283C97.1592 34.2675 96.2344 36.7554 94.5464 38.4268C91.9705 40.9773 87.8914 42.9192 84.8342 43.8037C81.777 44.6882 60.2755 49.0445 43.6257 46.7821C27.5475 44.5974 6.93594 37.0079 5.29326 31.8299C3.65058 26.6519 3.6608 23.1347 7.20648 19.7496Z" stroke="#FFD600" stroke-opacity="0.5" stroke-width="8" stroke-linecap="round"/>
</svg>
