<svg width="393" height="273" viewBox="0 0 393 273" fill="none" xmlns="http://www.w3.org/2000/svg">
<path d="M108.097 4.96437C121.404 3.18521 135.475 4.41257 148.9 4.41257C155.221 6.40284 163.574 5.82044 170.11 6.5278C184.556 8.09133 198.809 10.2557 213.34 11.0342C229.155 11.8815 244.265 13.0548 259.625 17.1959C273.138 20.8391 286.162 25.9567 299.529 30.0712C310.33 33.396 321.329 36.1653 331.974 40.0036C360.956 50.4543 377.6 72.7756 385.404 102.541C390.177 120.747 389.777 142.597 386.662 161.124C383.671 178.917 376.894 196.602 365.677 210.647C335.425 248.527 287.827 271.826 240.032 268.724C215.316 267.12 191.874 261.489 167.953 255.251C147.228 249.847 126.133 245.624 106.075 237.87C86.3914 230.261 68.4705 219.988 51.0715 207.98C39.8992 200.27 27.7858 192.054 19.7503 180.712C13.2422 171.527 10.5419 158.581 7.70712 147.788C4.19845 134.43 3.1817 119.15 4.65139 105.392C7.5075 78.6555 20.8025 53.8517 39.5226 35.4053C57.7424 17.4519 83.3692 8.27031 108.097 4.96437Z" stroke="#FFD600" stroke-opacity="0.6" stroke-width="8" stroke-linecap="round"/>
</svg>
