<svg width="193" height="82" viewBox="0 0 193 82" fill="none" xmlns="http://www.w3.org/2000/svg">
<path d="M12 39C20.3324 31.9179 27.8239 24.2988 35 19.5C42.1762 14.7011 70.7938 9.10124 96.9999 6C125.824 2.5889 165.816 5.15904 174.486 8.57951C183.157 12 187.947 16.9239 188.225 24.8165C188.421 30.3649 186.081 36.3155 183.157 42.2567C181.418 45.7906 179.166 50.115 175.611 53.2267C170.186 57.975 162 62 155.975 64.0653C149.951 66.1305 107.941 77.5491 76.5 77.0001C46.1387 76.4698 8.14346 67.8105 6 59.5C3.85654 51.1895 4.55652 45.3266 12 39Z" stroke="#FFD600" stroke-opacity="0.5" stroke-width="8" stroke-linecap="round"/>
</svg>
