<svg width="145" height="138" viewBox="0 0 145 138" fill="none" xmlns="http://www.w3.org/2000/svg">
<path d="M33.4301 44.7673C37.2133 42.8196 38.3898 40.9015 41.9212 38.5331C45.4526 36.1646 45.9613 35.5381 47.6573 33.9369C49.4677 32.2278 51.9055 31.0791 54.2648 30.35C58.3881 29.0758 63.1694 28.7448 67.4442 29.1215C77.5641 30.0132 86.3163 33.1213 95.2502 37.892C103.463 42.2776 111.95 46.4294 119.394 52.0671C124.378 55.8429 129.036 60.5512 130.254 66.9325C131.11 71.4186 130.41 75.8934 129.339 80.2837C128.702 82.895 127.843 86.0742 125.998 88.1065C123.182 91.2077 118.729 92.6741 114.969 94.2285C105.249 98.2469 95.3738 100.907 84.8303 101.179C72.9486 101.484 61.0694 99.9307 49.3834 97.8925C41.1863 96.4628 31.1271 94.6524 24.7439 88.8196C20.2313 84.6959 17.1155 78.1891 15.8592 72.2559C14.7001 66.7815 15.6676 63.178 19.5558 59.0743C23.9084 54.4806 27.8655 47.632 33.4301 44.7673Z" stroke="#FFD600" stroke-width="8" stroke-linecap="round"/>
</svg>
