<svg width="92" height="63" viewBox="0 0 92 63" fill="none" xmlns="http://www.w3.org/2000/svg">
<path d="M78.8545 38.9908C76.5867 41.1454 76.1456 42.7353 74.1394 45.1324C72.1333 47.5294 71.9017 48.0747 71.0315 49.5509C70.1027 51.1266 68.62 52.4406 67.108 53.444C64.4654 55.1977 61.1705 57.4277 58.0893 58.056C50.795 59.5433 44.0161 58.1918 36.775 56.713C30.1182 55.3536 23.3156 54.2153 16.9481 51.8177C12.6835 50.2119 8.46153 47.8842 6.32108 43.666C4.81636 40.7006 4.40764 37.4184 4.27728 34.1179C4.19973 32.1547 4.16332 29.7474 5.05167 27.9379C6.40728 25.1766 9.24301 23.2194 11.5736 21.3452C17.5987 16.5 24.0062 12.5741 31.3643 10.1833C39.6564 7.48898 48.3208 6.09825 56.9469 5.08752C62.9977 4.37855 70.4343 3.54775 76.0958 6.30338C80.0984 8.25153 83.5985 12.1616 85.6758 16.0576C87.5924 19.6524 87.6374 22.3799 85.7296 26.0676C83.594 30.1956 82.1902 35.8215 78.8545 38.9908Z" stroke="#FFD600" stroke-width="8" stroke-linecap="round"/>
</svg>
