<svg width="137" height="68" viewBox="0 0 137 68" fill="none" xmlns="http://www.w3.org/2000/svg">
<path d="M7.05505 35.3731C10.6215 29.2447 13.0001 21.0001 18.5103 16.2054C24.0204 11.4108 47.679 4.09915 70.0001 4.00006C92.4803 3.90027 126.465 11.8062 129.983 15.9032C133.5 20.0001 132.469 25.6655 132.434 30.7394C132.413 33.7574 130.807 40.1435 130.807 40.1435C130.807 40.1435 124.049 46.9829 120.344 49.6364C116.639 52.29 102.144 56.4855 90 59.0001C67.2393 63.7132 52.9523 66.5134 30.5 60.5001C20.6985 57.875 9.10502 56.4236 6.42433 50.7292C3.74365 45.0349 3.86904 40.8478 7.05505 35.3731Z" stroke="#FFD600" stroke-opacity="0.5" stroke-width="8" stroke-linecap="round"/>
</svg>
