<svg width="92" height="63" viewBox="0 0 92 63" fill="none" xmlns="http://www.w3.org/2000/svg">
<path d="M78.8545 38.9906C76.5867 41.1453 76.1456 42.7352 74.1394 45.1323C72.1333 47.5293 71.9017 48.0746 71.0315 49.5508C70.1027 51.1265 68.62 52.4404 67.108 53.4439C64.4654 55.1976 61.1705 57.4275 58.0893 58.0558C50.795 59.5432 44.0161 58.1917 36.775 56.7129C30.1182 55.3535 23.3156 54.2152 16.9481 51.8176C12.6835 50.2118 8.46153 47.8841 6.32108 43.6659C4.81636 40.7005 4.40764 37.4183 4.27728 34.1177C4.19973 32.1546 4.16332 29.7473 5.05167 27.9378C6.40728 25.1765 9.24301 23.2192 11.5736 21.345C17.5987 16.4999 24.0062 12.5739 31.3643 10.1831C39.6564 7.48886 48.3208 6.09813 56.9469 5.0874C62.9977 4.37843 70.4343 3.54762 76.0958 6.30326C80.0984 8.2514 83.5985 12.1615 85.6758 16.0575C87.5924 19.6523 87.6374 22.3798 85.7296 26.0675C83.594 30.1955 82.1902 35.8214 78.8545 38.9906Z" stroke="#FFD600" stroke-opacity="0.5" stroke-width="8" stroke-linecap="round"/>
</svg>
