<svg width="161" height="158" viewBox="0 0 161 158" fill="none" xmlns="http://www.w3.org/2000/svg">
<path d="M19.055 80.3731C22.6215 74.2447 25.0001 66.0001 30.5103 61.2054C36.0204 56.4108 59.679 49.0992 82.0001 49.0001C104.48 48.9003 138.465 56.8062 141.983 60.9032C145.5 65.0001 144.469 70.6655 144.434 75.7394C144.413 78.7574 142.807 85.1435 142.807 85.1435C142.807 85.1435 136.049 91.9829 132.344 94.6364C128.639 97.29 114.144 101.485 102 104C79.2393 108.713 64.9523 111.513 42.5 105.5C32.6985 102.875 21.105 101.424 18.4243 95.7292C15.7436 90.0349 15.869 85.8478 19.055 80.3731Z" stroke="#FFD600" stroke-width="8" stroke-linecap="round"/>
</svg>
