<svg width="144" height="82" viewBox="0 0 144 82" fill="none" xmlns="http://www.w3.org/2000/svg">
<path d="M33.3689 16.7123C38.3663 15.1884 40.3115 13.4211 45.1404 11.4562C49.9694 9.4913 50.7499 8.92705 53.2073 7.52637C55.8303 6.03132 59.0189 5.15417 61.9909 4.68235C67.185 3.85773 72.8662 4.03155 77.7453 4.84977C89.2956 6.78678 98.5888 10.7652 107.599 16.401C115.882 21.582 124.554 26.5612 131.565 32.8957C136.261 37.1381 140.296 42.2652 139.817 48.6816C139.48 53.1923 137.33 57.5292 134.771 61.7438C133.249 64.2508 131.3 67.2942 128.54 69.1041C124.328 71.866 118.692 72.8455 113.839 73.9842C101.292 76.928 88.9689 78.5174 76.5775 77.6821C62.6133 76.7409 49.2059 73.9676 36.1684 70.7369C27.0234 68.4707 15.8176 65.6346 10.1024 59.2187C6.06191 54.6829 4.36254 47.9443 4.66333 41.9657C4.94086 36.4493 7.14413 32.9991 12.9067 29.3614C19.3574 25.2894 26.0182 18.9537 33.3689 16.7123Z" stroke="#FFD600" stroke-opacity="0.5" stroke-width="8" stroke-linecap="round"/>
</svg>
