<svg width="124" height="82" viewBox="0 0 124 82" fill="none" xmlns="http://www.w3.org/2000/svg">
<path d="M22.4301 20.7671C26.2133 18.8195 27.3898 16.9014 30.9212 14.5329C34.4526 12.1645 34.9613 11.538 36.6573 9.93676C38.4677 8.22767 40.9055 7.07897 43.2648 6.34989C47.3881 5.07565 52.1694 4.74469 56.4442 5.12135C66.5641 6.01303 75.3163 9.12119 84.2502 13.8919C92.4631 18.2775 100.95 22.4293 108.394 28.067C113.378 31.8428 118.036 36.5511 119.254 42.9324C120.11 47.4185 119.41 51.8933 118.339 56.2835C117.702 58.8949 116.843 62.0741 114.998 64.1064C112.182 67.2076 107.729 68.674 103.969 70.2284C94.2492 74.2467 84.3738 76.9073 73.8303 77.1785C61.9486 77.4841 50.0694 75.9306 38.3834 73.8924C30.1863 72.4627 20.1271 70.6523 13.7439 64.8195C9.23127 60.6958 6.11553 54.1889 4.85923 48.2558C3.70007 42.7814 4.66758 39.1779 8.55585 35.0742C12.9084 30.4805 16.8655 23.6319 22.4301 20.7671Z" stroke="#FFD600" stroke-opacity="0.5" stroke-width="8" stroke-linecap="round"/>
</svg>
